<svg width="12" height="12" viewBox="0 0 12 12" fill="none" xmlns="http://www.w3.org/2000/svg">
<path d="M5.59933 1.17847H6.4029C6.47433 1.17847 6.51004 1.21418 6.51004 1.28561V10.7142C6.51004 10.7856 6.47433 10.8213 6.4029 10.8213H5.59933C5.5279 10.8213 5.49219 10.7856 5.49219 10.7142V1.28561C5.49219 1.21418 5.5279 1.17847 5.59933 1.17847Z" fill="white"/>
<path d="M1.50167 5.49097H10.5017C10.5731 5.49097 10.6088 5.52668 10.6088 5.59811V6.40168C10.6088 6.47311 10.5731 6.50882 10.5017 6.50882H1.50167C1.43025 6.50882 1.39453 6.47311 1.39453 6.40168V5.59811C1.39453 5.52668 1.43025 5.49097 1.50167 5.49097Z" fill="white"/>
</svg>
